# xmcd
#
# Track frame offsets: 
#        150
#        28201
#        52704
#        68349
#        96296
#        120127
#        142979
#        159997
#        177858
#
# Disc length: 2634 seconds
#
# Revision: 0
# Processed by: cddbd v1.4PL0 Copyright (c) Steve Scherf et al.
# Submitted via: ExactAudioCopy v0.90b4
#
DISCID=620a4809
DTITLE=Van Morrison - Live at the Koncerthuset
DYEAR=1983
DGENRE=Celtic
TTITLE0=Inarticulate Speech Of The Heart # 2
TTITLE1=Into The Mystic > Inarticulate Speech Of The Heart # 1 > Dwell
TTITLE1=er On The Threshold
TTITLE2=Bright Side Of The Road
TTITLE3=It's All In The Game > You Know What They're Writing About
TTITLE4=Vanlose Stairway
TTITLE5=Evening Meditation
TTITLE6=Northern Muse ( Solid Ground )
TTITLE7=Higher Than The World
TTITLE8=Beautiful Vision
EXTD=
EXTT0=
EXTT1=
EXTT2=
EXTT3=
EXTT4=
EXTT5=
EXTT6=
EXTT7=
EXTT8=
PLAYORDER=
